<svg xmlns="http://www.w3.org/2000/svg" width="26.276" height="22.693" viewBox="0 0 26.276 22.693">
  <g id="Group_90" data-name="Group 90" transform="translate(-198 -188)">
    <path id="Polygon_2" data-name="Polygon 2" d="M16.824,0a5,5,0,0,1,4.327,2.495l3.674,6.346a5,5,0,0,1,0,5.01L21.151,20.2a5,5,0,0,1-4.327,2.495H9.452A5,5,0,0,1,5.125,20.2L1.45,13.852a5,5,0,0,1,0-5.01L5.125,2.495A5,5,0,0,1,9.452,0Z" transform="translate(198 188)" fill="#6cbbc7"/>
    <path id="bolt-1439777-1214348" d="M14.4,6.924a.655.655,0,0,0-.583-.36H10.55V2.637a.656.656,0,0,0-1.185-.419l-5.236,7.2a.7.7,0,0,0,.53,1.073H7.932v3.927a.655.655,0,0,0,.452.622.733.733,0,0,0,.2.033.655.655,0,0,0,.53-.268l5.236-7.2A.655.655,0,0,0,14.4,6.924ZM9.241,12.4V9.837a.655.655,0,0,0-.655-.655H5.968L9.241,4.653V7.219a.655.655,0,0,0,.655.655h2.618Z" transform="translate(201.894 190.835)" fill="#fff"/>
  </g>
</svg>
