<svg xmlns="http://www.w3.org/2000/svg" width="27" height="23" viewBox="0 0 27 23">
  <g id="Group_91" data-name="Group 91" transform="translate(-117.776 -188)">
    <path id="Polygon_2" data-name="Polygon 2" d="M17.387,0A5,5,0,0,1,21.7,2.469l3.815,6.5a5,5,0,0,1,0,5.062l-3.815,6.5A5,5,0,0,1,17.387,23H9.613A5,5,0,0,1,5.3,20.531l-3.815-6.5a5,5,0,0,1,0-5.062L5.3,2.469A5,5,0,0,1,9.613,0Z" transform="translate(117.776 188)" fill="#6cbbc7"/>
    <path id="water-drop-1442311-1218380" d="M9.549,2.108a.638.638,0,0,0-.714,0C8.644,2.235,4.25,5.3,4.25,9.811a4.942,4.942,0,0,0,9.885,0C14.135,5.22,9.734,2.229,9.549,2.108Zm-.357,11.37A3.673,3.673,0,0,1,5.525,9.811c0-3.189,2.685-5.593,3.667-6.377.988.772,3.667,3.189,3.667,6.377A3.673,3.673,0,0,1,9.192,13.478Z" transform="translate(122.196 191.186)" fill="#fff"/>
  </g>
</svg>
