<svg xmlns="http://www.w3.org/2000/svg" width="27" height="23" viewBox="0 0 27 23">
  <g id="Group_94" data-name="Group 94" transform="translate(-38 -186)">
    <path id="Polygon_1" data-name="Polygon 1" d="M17.387,0A5,5,0,0,1,21.7,2.469l3.815,6.5a5,5,0,0,1,0,5.062l-3.815,6.5A5,5,0,0,1,17.387,23H9.613A5,5,0,0,1,5.3,20.531l-3.815-6.5a5,5,0,0,1,0-5.062L5.3,2.469A5,5,0,0,1,9.613,0Z" transform="translate(38 186)" fill="#ff5a5a"/>
    <path id="rainy-weather-1214558" d="M7.574,5.8a4.982,4.982,0,0,0-2.182-3.7.634.634,0,0,0-.71,0A5.059,5.059,0,0,0,2.5,5.8a2.537,2.537,0,0,0,5.074,0ZM5.037,7.073A1.268,1.268,0,0,1,3.768,5.8,3.45,3.45,0,0,1,5.037,3.445,3.418,3.418,0,0,1,6.305,5.8,1.268,1.268,0,0,1,5.037,7.073Zm7.332-4.966a.634.634,0,0,0-.71,0A5.059,5.059,0,0,0,9.476,5.8a2.537,2.537,0,0,0,5.074,0A4.982,4.982,0,0,0,12.369,2.107Zm-.355,4.966A1.268,1.268,0,0,1,10.745,5.8a3.45,3.45,0,0,1,1.268-2.359A3.418,3.418,0,0,1,13.282,5.8,1.268,1.268,0,0,1,12.013,7.073ZM9.2,8.45a.634.634,0,0,0-.71,0,5.059,5.059,0,0,0-2.182,3.7,2.537,2.537,0,0,0,5.074,0A4.982,4.982,0,0,0,9.2,8.45Zm-.355,4.966a1.268,1.268,0,0,1-1.268-1.268A3.45,3.45,0,0,1,8.842,9.788a3.418,3.418,0,0,1,1.268,2.359A1.268,1.268,0,0,1,8.842,13.415Z" transform="translate(42.791 189.159)" fill="#fff"/>
  </g>
</svg>
