<svg xmlns="http://www.w3.org/2000/svg" width="32" height="32" viewBox="0 0 32 32">
  <g id="star" transform="translate(-333 -120)">
    <rect id="Rectangle_20" data-name="Rectangle 20" width="32" height="32" rx="5" transform="translate(333 120)" fill="#ff5a5a"/>
    <path id="favorite-1439760-1214331" d="M22,9.67A1,1,0,0,0,21.14,9l-5.69-.83L12.9,3a1,1,0,0,0-1.8,0L8.55,8.16,2.86,9a.985.985,0,0,0-.56,1.68l4.13,4-1,5.68A1,1,0,0,0,6.9,21.44L12,18.77l5.1,2.67a.93.93,0,0,0,.46.12,1.005,1.005,0,0,0,.99-1.19l-1-5.68,4.13-4A1,1,0,0,0,22,9.67Zm-6.15,4a1,1,0,0,0-.29.88l.72,4.2-3.76-2a1.06,1.06,0,0,0-.94,0l-3.76,2,.72-4.2a1,1,0,0,0-.29-.88l-3-3,4.21-.61a1,1,0,0,0,.76-.55L12,5.7l1.88,3.82a1,1,0,0,0,.76.55l4.21.61Z" transform="translate(336.994 123.564)" fill="#fff"/>
  </g>
</svg>
